<svg width="56" height="48" viewBox="0 0 56 48" fill="none" xmlns="http://www.w3.org/2000/svg">
<path id="Union" fill-rule="evenodd" clip-rule="evenodd" d="M22.0674 34.973C22.1538 35.1449 22.2388 35.3306 22.3216 35.5301L22.6487 36.024L24.0923 35.052C25.4156 34.1339 25.1901 33.8871 24.566 33.9488C24.2369 34.1304 23.8921 34.2802 23.5359 34.3962V34.3731L23.459 34.402C23.1151 34.5314 22.6617 34.7019 22.0674 34.973ZM19.9767 36.1099L19.8893 35.9777L17.5058 37.0809L18.5735 38.701L19.5134 38.0838L20.335 37.5441C20.1754 37.015 20.0578 36.5371 19.9767 36.1099ZM26.8401 43.9744C25.6383 42.9959 24.4772 41.3357 23.4263 38.7299C24.3699 38.0951 25.3898 37.3991 26.581 36.5563C28.3405 35.3143 28.3029 34.5505 27.4457 33.2699C27.0639 32.6864 26.7006 32.3157 26.3696 31.978C25.7554 31.3513 25.2524 30.8382 24.9495 29.2891C24.8837 28.9427 24.8148 28.5816 24.745 28.2158L24.7447 28.2144L24.7447 28.2144C24.3281 26.0313 23.8796 23.6813 23.8668 23.2717C23.7244 21.5965 23.3287 19.9541 22.6938 18.4038C21.8684 16.3595 20.4444 14.6288 18.6186 13.451C17.4421 12.691 16.1028 12.2369 14.7166 12.128C13.3304 12.0191 11.9393 12.2588 10.6637 12.8261C3.09981 16.1974 4.8968 23.48 6.26523 27.7925C5.32195 27.4722 4.31287 27.4136 3.34041 27.6228C2.61827 27.7786 1.94288 28.1092 1.37048 28.5871C0.781144 29.0798 0.35121 29.7441 0.137396 30.4926C-0.0340686 31.1891 -0.0452046 31.9169 0.10487 32.6185C0.254944 33.3202 0.56211 33.9763 1.00206 34.5351C2.66372 37.0115 5.98703 38.1918 8.3329 38.9633H8.43064C8.719 39.0601 8.9708 39.1569 9.18859 39.2407L9.18863 39.2407C9.28316 39.2771 9.37128 39.311 9.4532 39.3413C10.5175 39.7557 11.2336 40.509 11.996 41.3111C12.44 41.7783 12.8998 42.2619 13.4532 42.7049C15.3039 44.1782 15.4755 44.0564 16.731 43.1651C16.9547 43.0063 17.2127 42.823 17.5209 42.62C18.4362 41.998 19.3614 41.4061 20.2648 40.8282L20.266 40.8274C20.4827 40.6887 20.6981 40.5509 20.9119 40.4136C21.0026 40.3525 21.0932 40.2916 21.1838 40.2308C22.2234 43.1376 23.5421 45.0685 24.9945 46.2714C25.8352 46.9838 26.8017 47.4935 27.8315 47.7675C28.8613 48.0415 29.9316 48.0737 30.9734 47.8622C31.4195 47.7804 31.8602 47.6663 32.2927 47.5207C37.1489 45.8834 39.9208 42.0888 41.4647 37.6268C41.9663 36.0776 42.3592 34.4905 42.6408 32.8795C44.1567 32.861 45.76 32.861 47.6488 32.861C48.5661 32.861 49.8217 29.7675 50.2578 27.2371C50.2804 27.1136 50.4834 25.5707 50.4834 25.5707C50.5424 25.0969 50.7396 24.8474 50.9926 24.5271L50.9926 24.527C51.0938 24.3988 51.2041 24.2593 51.318 24.0895L51.3957 23.9744L51.3957 23.9744C51.5705 23.7153 51.7826 23.401 52.0172 23.0866L52.0623 22.9863C53.7766 20.6719 56.1977 17.3932 55.9872 13.9062C55.9785 13.0689 55.7829 12.2448 55.4153 11.4972C55.0477 10.7496 54.518 10.0984 53.8668 9.59372C53.0871 9.03786 52.1689 8.72204 51.2202 8.68339C50.2974 8.63619 49.3763 8.80778 48.5285 9.18484C47.5222 9.63099 46.6427 10.3317 45.9721 11.2215C44.1977 6.369 40.5811 -1.57707 30.8067 0.274445C29.4156 0.53194 28.0903 1.07796 26.9119 1.87909C25.3954 2.92655 24.2112 4.40705 23.5059 6.13756C22.7418 8.09638 22.5536 10.2419 22.9645 12.3093C23.4336 14.645 24.3624 16.858 25.6939 18.8127C25.9645 19.237 27.6864 22.5543 29.0097 25.1156C29.2503 25.6247 29.6488 26.4039 30.0021 27.0751C30.0784 27.2212 30.1441 27.345 30.2007 27.4517C30.396 27.8199 30.4834 27.9846 30.5234 28.16C30.5558 28.302 30.5572 28.451 30.5598 28.7206C30.5614 28.888 30.5634 29.1019 30.5736 29.3895V29.5592V30.0221L30.5736 30.0252C30.5961 32.0364 30.6051 32.8379 33.3931 32.8996C35.5602 32.9466 37.3418 32.93 39.022 32.9144H39.022C39.3925 32.9109 39.758 32.9075 40.1217 32.9048C39.8848 34.0931 39.574 35.2638 39.191 36.4085C37.7524 40.1953 35.3875 43.3924 31.3945 44.9444C31.092 45.0264 30.7849 45.086 30.4752 45.1229C29.8304 45.2182 29.1748 45.1653 28.5493 44.9677C27.9239 44.7701 27.342 44.432 26.8401 43.9744ZM40.5277 30.2226H38.2052L38.4082 27.9545L40.6968 27.5852C40.6864 27.7476 40.6779 27.9158 40.6717 28.0899C40.6496 28.8035 40.6015 29.515 40.5277 30.2226ZM14.2838 40.1204L14.2839 40.1206C14.905 41.0011 14.9647 41.0858 16.6713 39.9353L15.4006 38.0067L14.7314 38.3075C14.4238 38.4436 14.1759 38.5377 13.9834 38.6107C13.6599 38.7334 13.4929 38.7968 13.4622 38.9006C13.4294 39.0114 13.5523 39.1683 13.8064 39.4928C13.9032 39.6163 14.019 39.7642 14.1525 39.943V39.9353C14.1991 40.0004 14.2427 40.0622 14.2838 40.1204ZM46.0022 30.1378C46.9571 30.1764 47.5059 30.1841 47.6338 28.8031C47.6583 28.5221 47.6881 28.2619 47.7153 28.0243C47.8546 26.807 47.9261 26.1819 46.8819 26.3885C45.8368 26.6045 44.6262 26.8436 43.348 27.0751L43.0698 30.1609C44.0097 30.1146 44.9571 30.0992 46.0022 30.1378ZM34.2277 30.1995H35.9345L36.0999 28.402L34.5961 28.7337C34.4964 28.7568 34.3994 28.7743 34.3069 28.7909L34.3069 28.7909C34.1833 28.8132 34.0678 28.834 33.9646 28.8649C33.8389 28.9019 33.733 28.9181 33.644 28.9317C33.3068 28.9833 33.2127 28.9976 33.2127 29.9681C33.1826 30.2521 33.6533 30.2297 33.9967 30.2134H33.9967C34.0824 30.2094 34.1601 30.2057 34.2202 30.2072L34.2277 30.1995ZM52.6789 14.1068C52.6898 13.7746 52.6279 13.4441 52.4977 13.1396C52.3676 12.8352 52.1726 12.5646 51.927 12.3478C51.6625 12.1627 51.3522 12.0584 51.0323 12.047C50.6187 12.031 50.2071 12.1128 49.8292 12.2861C49.3864 12.4856 48.9929 12.7847 48.678 13.1613C48.363 13.5378 48.1346 13.9823 48.0097 14.4616C47.4834 16.4057 46.6488 17.046 45.3856 16.6912C44.3054 16.3799 43.895 15.2394 43.2947 13.5711L43.2653 13.4896C41.9646 9.77887 39.2352 2.10281 31.4006 3.59174C30.4555 3.76588 29.555 4.13601 28.754 4.6795C27.7472 5.36176 26.9618 6.33686 26.4984 7.47991C25.983 8.82955 25.8627 10.3042 26.1525 11.723C26.5509 13.603 27.3184 15.3801 28.4082 16.9458C28.805 17.5565 30.3707 20.5728 31.6763 23.0878L31.9119 23.5418C32.0044 23.734 32.086 23.9076 32.1596 24.064C32.5055 24.7993 32.6731 25.1557 32.9496 25.2933C33.2098 25.4227 33.5663 25.3584 34.2582 25.2337C34.6081 25.1706 35.0438 25.092 35.5961 25.0153L36.9721 24.7761C39.9871 24.2515 43.7465 23.5881 46.2428 23.0712L46.9571 22.9246L46.9866 22.9186C47.8482 22.7432 48.1579 22.6802 48.364 22.4991C48.4796 22.3975 48.5626 22.2588 48.6922 22.0421C48.8295 21.8125 49.0192 21.4954 49.3556 21.0422L49.4157 20.9574L49.4663 20.8882C50.869 18.9722 52.8126 16.3173 52.6789 14.1068Z" fill="#00D69E"/>
</svg>
